<mxfile host="app.diagrams.net" agent="Mozilla/5.0 (Windows NT 10.0; Win64; x64; rv:136.0) Gecko/20100101 Firefox/136.0" version="26.1.2">
  <diagram name="Pagina-1" id="N7frLG2mQ_xh7hiVeOaq">
    <mxGraphModel dx="606" dy="414" grid="1" gridSize="10" guides="1" tooltips="1" connect="1" arrows="1" fold="1" page="1" pageScale="1" pageWidth="8268" pageHeight="1169" math="0" shadow="0">
      <root>
        <mxCell id="0" />
        <mxCell id="1" parent="0" />
        <mxCell id="wa1HhOxaZgnKPg2_k8DN-23" style="edgeStyle=orthogonalEdgeStyle;rounded=0;orthogonalLoop=1;jettySize=auto;html=1;exitX=0;exitY=0.25;exitDx=0;exitDy=0;exitPerimeter=0;endArrow=none;startFill=0;" edge="1" parent="1" source="wa1HhOxaZgnKPg2_k8DN-20">
          <mxGeometry relative="1" as="geometry">
            <mxPoint x="270" y="80" as="targetPoint" />
            <Array as="points">
              <mxPoint x="270" y="170" />
              <mxPoint x="270" y="80" />
            </Array>
          </mxGeometry>
        </mxCell>
        <mxCell id="wa1HhOxaZgnKPg2_k8DN-28" style="edgeStyle=orthogonalEdgeStyle;rounded=0;orthogonalLoop=1;jettySize=auto;html=1;exitX=0;exitY=0.75;exitDx=0;exitDy=0;exitPerimeter=0;endArrow=oval;endFill=1;" edge="1" parent="1" source="wa1HhOxaZgnKPg2_k8DN-20">
          <mxGeometry relative="1" as="geometry">
            <mxPoint x="170" y="120" as="targetPoint" />
            <Array as="points">
              <mxPoint x="245" y="120" />
              <mxPoint x="170" y="120" />
            </Array>
          </mxGeometry>
        </mxCell>
        <mxCell id="wa1HhOxaZgnKPg2_k8DN-30" style="edgeStyle=orthogonalEdgeStyle;rounded=0;orthogonalLoop=1;jettySize=auto;html=1;exitX=1;exitY=0.5;exitDx=0;exitDy=0;exitPerimeter=0;endArrow=none;startFill=0;" edge="1" parent="1" source="wa1HhOxaZgnKPg2_k8DN-20">
          <mxGeometry relative="1" as="geometry">
            <mxPoint x="259.8064516129032" y="310" as="targetPoint" />
          </mxGeometry>
        </mxCell>
        <mxCell id="wa1HhOxaZgnKPg2_k8DN-20" value="" style="verticalLabelPosition=bottom;shadow=0;dashed=0;align=center;html=1;verticalAlign=top;shape=mxgraph.electrical.logic_gates.logic_gate;operation=and;rotation=90;" vertex="1" parent="1">
          <mxGeometry x="210" y="190" width="100" height="60" as="geometry" />
        </mxCell>
        <mxCell id="wa1HhOxaZgnKPg2_k8DN-26" style="edgeStyle=orthogonalEdgeStyle;rounded=0;orthogonalLoop=1;jettySize=auto;html=1;exitX=0;exitY=0.75;exitDx=0;exitDy=0;exitPerimeter=0;endArrow=none;startFill=0;" edge="1" parent="1" source="wa1HhOxaZgnKPg2_k8DN-21">
          <mxGeometry relative="1" as="geometry">
            <mxPoint x="170" y="80" as="targetPoint" />
            <Array as="points">
              <mxPoint x="170" y="170" />
            </Array>
          </mxGeometry>
        </mxCell>
        <mxCell id="wa1HhOxaZgnKPg2_k8DN-27" style="edgeStyle=orthogonalEdgeStyle;rounded=0;orthogonalLoop=1;jettySize=auto;html=1;exitX=0;exitY=0.25;exitDx=0;exitDy=0;exitPerimeter=0;endArrow=oval;endFill=1;" edge="1" parent="1" source="wa1HhOxaZgnKPg2_k8DN-21">
          <mxGeometry relative="1" as="geometry">
            <mxPoint x="270" y="140" as="targetPoint" />
            <Array as="points">
              <mxPoint x="195" y="140" />
            </Array>
          </mxGeometry>
        </mxCell>
        <mxCell id="wa1HhOxaZgnKPg2_k8DN-29" style="edgeStyle=orthogonalEdgeStyle;rounded=0;orthogonalLoop=1;jettySize=auto;html=1;exitX=1;exitY=0.5;exitDx=0;exitDy=0;exitPerimeter=0;endArrow=none;startFill=0;" edge="1" parent="1" source="wa1HhOxaZgnKPg2_k8DN-21">
          <mxGeometry relative="1" as="geometry">
            <mxPoint x="179.80645161290317" y="310" as="targetPoint" />
          </mxGeometry>
        </mxCell>
        <mxCell id="wa1HhOxaZgnKPg2_k8DN-21" value="" style="verticalLabelPosition=bottom;shadow=0;dashed=0;align=center;html=1;verticalAlign=top;shape=mxgraph.electrical.logic_gates.logic_gate;operation=or;rotation=90;" vertex="1" parent="1">
          <mxGeometry x="130" y="190" width="100" height="60" as="geometry" />
        </mxCell>
        <mxCell id="wa1HhOxaZgnKPg2_k8DN-31" value="x&lt;sub&gt;0&lt;/sub&gt;" style="text;html=1;align=center;verticalAlign=middle;whiteSpace=wrap;rounded=0;" vertex="1" parent="1">
          <mxGeometry x="140" y="50" width="60" height="30" as="geometry" />
        </mxCell>
        <mxCell id="wa1HhOxaZgnKPg2_k8DN-32" value="y&lt;sub&gt;0&lt;/sub&gt;" style="text;html=1;align=center;verticalAlign=middle;whiteSpace=wrap;rounded=0;" vertex="1" parent="1">
          <mxGeometry x="240" y="50" width="60" height="30" as="geometry" />
        </mxCell>
        <mxCell id="wa1HhOxaZgnKPg2_k8DN-34" value="G&lt;sub&gt;0&lt;/sub&gt;" style="text;html=1;align=center;verticalAlign=middle;whiteSpace=wrap;rounded=0;" vertex="1" parent="1">
          <mxGeometry x="150" y="310" width="60" height="30" as="geometry" />
        </mxCell>
        <mxCell id="wa1HhOxaZgnKPg2_k8DN-35" value="P&lt;sub&gt;0&lt;/sub&gt;" style="text;html=1;align=center;verticalAlign=middle;whiteSpace=wrap;rounded=0;" vertex="1" parent="1">
          <mxGeometry x="230" y="310" width="60" height="30" as="geometry" />
        </mxCell>
      </root>
    </mxGraphModel>
  </diagram>
</mxfile>
